<svg width="401" height="401" viewBox="0 0 401 401" fill="none" xmlns="http://www.w3.org/2000/svg">
<rect width="401" height="401" fill="#E9EEF1"/>
<path d="M118.733 170L77.5264 189.806C77.5264 189.806 65.7612 228.238 107.558 230.869C149.357 233.499 166.36 195.777 118.733 170Z" fill="#BABEC1"/>
<path opacity="0.2" d="M110.15 201.531C110.15 201.531 108.786 203.074 110.927 204.905C110.927 204.905 110.823 220.96 123.942 220.426L129.313 210.745C129.313 210.745 135.833 218.158 140.867 215.734L130.247 208.276L119.234 205.928L110.15 201.531V201.531Z" fill="#BABEC1"/>
<path d="M136.096 195.097C136.182 205.398 129.261 207.293 129.261 207.293C123.083 209.589 116.838 206.832 114.281 205.438L114.324 205.759C114.956 210.39 116.853 218.951 122.329 220.265C122.538 220.315 122.737 220.348 122.936 220.376C123.083 220.388 123.228 220.403 123.377 220.41C123.447 220.413 123.517 220.42 123.584 220.423C128.474 220.46 129.874 213.082 130.26 209.658C130.377 208.625 130.402 207.947 130.402 207.947C130.402 207.947 136.381 217.222 140.872 215.736C145.254 214.286 141.697 201.19 136.097 195.097H136.096Z" fill="white"/>
<path opacity="0.54" d="M77.5314 189.805C80.8256 193.268 88.6667 199.371 102.937 199.306C119.326 199.23 122.478 180.948 118.733 170L77.5314 189.805Z" fill="url(#paint0_radial_2325_17209)"/>
<path d="M123.584 220.429L123.581 220.424C123.514 220.424 123.444 220.416 123.375 220.411C123.447 220.416 123.512 220.426 123.584 220.429V220.429ZM130.399 207.947C130.399 207.947 130.374 208.624 130.257 209.659L130.255 209.693C130.255 209.693 136.429 217.624 140.871 215.737C136.379 217.223 130.4 207.947 130.4 207.947H130.399Z" fill="#BABEC1"/>
<path d="M123.375 220.414C123.225 220.406 123.081 220.391 122.934 220.379C123.086 220.399 123.23 220.406 123.375 220.414Z" fill="white"/>
<path d="M126.031 212.982C126.973 212.909 127.616 211.306 127.468 209.402C127.32 207.497 126.437 206.013 125.495 206.086C124.553 206.159 123.909 207.762 124.057 209.667C124.205 211.571 125.089 213.055 126.031 212.982Z" fill="#BABEC1"/>
<path d="M135.479 208.163C136.111 207.782 136 206.443 135.233 205.171C134.466 203.899 133.333 203.177 132.701 203.558C132.07 203.938 132.181 205.278 132.948 206.55C133.715 207.821 134.848 208.544 135.479 208.163Z" fill="#BABEC1"/>
<path d="M126.353 210.065C127.039 210.012 127.551 209.408 127.497 208.717C127.443 208.025 126.844 207.507 126.158 207.561C125.473 207.614 124.961 208.218 125.014 208.91C125.068 209.601 125.667 210.119 126.353 210.065Z" fill="white"/>
<path d="M134.102 206.277C134.691 205.922 134.88 205.157 134.525 204.568C134.17 203.979 133.405 203.79 132.816 204.145C132.227 204.5 132.038 205.265 132.393 205.854C132.748 206.443 133.513 206.632 134.102 206.277Z" fill="white"/>
<path d="M111.834 203.905C112.202 208.698 114.022 219.59 122.934 220.375C122.73 220.349 122.527 220.312 122.326 220.266C116.851 218.952 114.911 210.068 114.279 205.436C113.514 205.018 113.076 204.722 113.076 204.722C112.645 204.477 112.23 204.204 111.834 203.905V203.905Z" fill="#BABEC1"/>
<path d="M135.456 189.439C135.689 198.88 133.076 203.052 129.699 204.574C129.48 204.737 127.14 206.324 121.746 204.63C119.748 204.025 117.832 203.174 116.044 202.095L115.935 202.03C115.407 201.735 114.864 201.414 114.301 201.068L114.184 200.998L114.187 200.996C113.953 200.85 113.721 200.71 113.482 200.554C113.482 200.554 111.288 199.055 110.252 200.732C110.252 200.732 109.373 202.039 111.831 203.905C112.177 204.168 112.586 204.44 113.074 204.722C113.074 204.722 113.512 205.018 114.276 205.436H114.279C116.834 206.832 123.081 209.587 129.259 207.291C129.259 207.291 136.18 205.397 136.094 195.095C136.085 193.437 135.894 191.564 135.456 189.439V189.439Z" fill="#BABEC1"/>
<path d="M162.341 178.727C165.467 178.743 172.761 179.267 180.462 183.233C184.949 185.418 189.69 188.651 194.092 193.449C194.092 193.449 194.27 193.645 194.6 193.98L194.841 194.222C198.755 198.096 216.895 214.018 223.364 183.366C223.336 185.544 223.135 187.716 222.764 189.862L223.255 190.714C227.869 198.737 229.457 212.362 226.462 218.231C225.361 220.383 223.885 220.967 222.829 221.075L222.807 221.078L222.742 221.08C215.917 221.855 210.578 210.661 210.578 210.661C208.686 215.572 205.095 222.271 199.577 222.271C199.05 222.271 198.512 222.208 197.976 222.083C197.904 222.065 197.829 222.043 197.755 222.02L197.67 221.995C197.498 221.947 197.334 221.892 197.167 221.84L197.023 221.791C196.808 221.711 196.597 221.623 196.388 221.529C185.544 217.303 186.468 201.934 187.389 195.56L187.342 195.517C187.314 195.492 187.284 195.463 187.244 195.431C186.896 195.126 185.868 194.298 184.017 193.449C182.94 192.961 181.824 192.561 180.681 192.254L174.961 219.414H163.037L168.821 191.359C165.584 191.624 161.874 192.261 157.641 193.449L159.77 183.365L160.741 178.769C160.741 178.769 161.189 178.732 161.998 178.727H162.341ZM222.515 191.151C222.423 191.581 222.324 192 222.217 192.406C222.005 193.218 221.768 193.98 221.512 194.694C221.255 195.408 220.977 196.075 220.683 196.697C220.239 197.63 219.761 198.464 219.258 199.208C218.922 199.704 218.576 200.16 218.225 200.581C217.874 201 217.515 201.384 217.154 201.735C217.07 201.817 216.983 201.889 216.898 201.97C217.463 202.493 217.993 203.338 218.335 204.373C218.975 206.314 218.718 208.142 217.759 208.463C217.662 208.495 217.56 208.511 217.458 208.511L217.418 208.503C217.371 208.503 217.321 208.488 217.274 208.481C217.196 208.469 217.119 208.451 217.045 208.426C216.993 208.406 216.94 208.379 216.888 208.353C216.813 208.318 216.739 208.278 216.664 208.228C216.526 208.138 216.398 208.034 216.28 207.919C216.148 207.791 216.024 207.655 215.909 207.511C215.86 207.449 215.81 207.388 215.762 207.321C215.69 207.222 215.623 207.115 215.556 207.007C215.513 206.937 215.469 206.872 215.426 206.797C215.357 206.672 215.289 206.535 215.225 206.401C215.192 206.333 215.157 206.267 215.125 206.198C214.776 205.425 214.575 204.593 214.532 203.747C214.031 204.043 213.511 204.308 212.976 204.538C212.662 204.671 212.361 204.787 212.08 204.882C211.796 204.978 211.532 205.055 211.29 205.12C210.322 205.376 209.707 205.403 209.707 205.403C209.239 205.466 208.776 205.503 208.315 205.528L207.872 205.54C207.67 205.547 207.468 205.559 207.269 205.559C207.09 205.559 206.908 205.557 206.729 205.552C206.796 206.261 206.776 206.975 206.671 207.679C206.629 207.978 206.572 208.266 206.505 208.543C206.502 208.559 206.5 208.577 206.495 208.592C206.431 208.851 206.356 209.107 206.268 209.359C206.258 209.383 206.251 209.408 206.243 209.431C206.159 209.667 206.066 209.89 205.967 210.1L205.929 210.18C205.823 210.402 205.702 210.616 205.566 210.821C205.445 211.007 205.309 211.182 205.16 211.345C205.038 211.476 204.911 211.592 204.784 211.689L204.724 211.731C204.595 211.822 204.463 211.894 204.331 211.947C204.311 211.954 204.291 211.959 204.271 211.968C204.14 212.013 204.004 212.038 203.865 212.043L203.843 212.048C203.785 212.047 203.728 212.043 203.671 212.035C202.389 211.847 201.654 209.591 202.028 206.994C202.124 206.311 202.3 205.641 202.551 204.998C202.306 204.939 202.057 204.892 201.818 204.827C200.847 204.563 199.914 204.246 199.025 203.885C198.161 203.535 197.316 203.142 196.492 202.707C195.376 202.119 194.297 201.464 193.26 200.744C192.421 200.161 191.607 199.542 190.823 198.886C190.616 198.713 190.411 198.537 190.208 198.359L190.195 198.481C189.662 204.909 189.64 217.26 196.535 220.661L196.796 220.784C196.97 220.861 197.143 220.929 197.314 220.992C197.506 221.054 197.695 221.117 197.894 221.173C197.986 221.198 198.078 221.23 198.168 221.251C198.649 221.366 199.119 221.418 199.575 221.418C205.294 221.418 208.905 213.005 210.337 208.864C210.805 207.516 211.041 206.616 211.041 206.616C211.041 206.616 212.762 211.172 215.399 215.107C217.301 217.875 219.694 220.249 222.309 220.249C222.448 220.249 222.585 220.24 222.724 220.228C229.032 219.616 228.195 201.003 222.515 191.151V191.151ZM204.708 205.396C204.559 205.666 204.442 206.01 204.387 206.396C204.252 207.338 204.519 208.157 204.987 208.223C205.306 208.268 205.632 207.947 205.851 207.441C205.951 207.205 206.033 206.937 206.075 206.638C206.135 206.218 206.112 205.827 206.03 205.511C205.978 205.508 205.928 205.501 205.878 205.498C205.532 205.481 205.187 205.453 204.843 205.416L204.708 205.396ZM215.975 202.757C215.828 202.873 215.682 202.982 215.537 203.088C215.477 203.13 215.418 203.168 215.358 203.207L215.231 203.298C215.221 203.669 215.301 204.037 215.465 204.37C215.709 204.889 216.082 205.213 216.369 205.117C216.705 205.005 216.795 204.36 216.57 203.679C216.431 203.261 216.207 202.927 215.975 202.757V202.757ZM237.071 191.376C238.465 191.388 247.429 191.727 250.285 198.366L253.711 206.331H253.848L257.013 191.376H257.523C259.498 191.423 266.486 192.061 265.052 198.854L260.713 219.414H250.783L243.99 204.039H243.784L240.544 219.414H230.96L236.881 191.376H237.071ZM269.478 191.398C273.562 191.544 294.631 192.581 294.713 198.527H277.935L277.176 202.03H292.93L291.448 209.072H275.694L273.523 219.414H263.56L269.478 191.398ZM299.078 191.378L297.561 198.562H306.386L301.974 219.416H311.73L316.142 198.562H325C325.002 191.945 299.077 191.378 299.077 191.378H299.078Z" fill="#BABEC1"/>
<defs>
<radialGradient id="paint0_radial_2325_17209" cx="0" cy="0" r="1" gradientUnits="userSpaceOnUse" gradientTransform="translate(98.41 181.827) rotate(5.71013) scale(31.2802 45.482)">
<stop stop-color="#ACACAC"/>
<stop offset="1" stop-color="#BABEC1" stop-opacity="0"/>
</radialGradient>
</defs>
</svg>
