<svg width="200" height="49" viewBox="0 0 200 49" xmlns="http://www.w3.org/2000/svg">
    <defs>
        <radialGradient cx="62.381%" cy="-1.218%" fx="62.381%" fy="-1.218%" r="103.003%" gradientTransform="scale(.85328 1) rotate(-.262 .677 -23.451)" id="j9zjmd9r0a">
            <stop stop-color="#FF2034" offset="0%"/>
            <stop stop-color="#FF001A" offset="62.61%"/>
            <stop stop-color="#C12525" offset="81.36%"/>
            <stop stop-color="#7A312B" offset="100%"/>
        </radialGradient>
        <radialGradient cx="46.934%" cy="29.063%" fx="46.934%" fy="29.063%" r="138.284%" gradientTransform="scale(.68768 1) rotate(-.262 .576 -46.292)" id="uoksrkouyb">
            <stop stop-opacity="0" offset=".383%"/>
            <stop offset="70.9%"/>
        </radialGradient>
    </defs>
    <g fill-rule="nonzero" fill="none">
        <g>
            <path d="M34.324 0 1.226 15.91s-9.45 30.871 24.122 32.985C58.921 51.007 72.578 20.706 34.324 0z" fill="url(#j9zjmd9r0a)"/>
            <path d="M27.43 25.328s-1.096 1.239.624 2.71c0 0-.084 12.897 10.454 12.468l4.314-7.777s5.237 5.955 9.28 4.008l-8.53-5.991-8.846-1.886-7.296-3.532z" fill="#000" opacity=".2"/>
            <path d="M48.27 20.16c.069 8.275-5.49 9.797-5.49 9.797-4.962 1.844-9.978-.37-12.032-1.49l.034.258c.508 3.72 2.032 10.597 6.43 11.652.168.04.328.067.488.089.118.01.234.022.354.028.056.002.112.008.166.01 3.928.03 5.052-5.897 5.362-8.647.094-.83.114-1.375.114-1.375s4.803 7.451 8.41 6.257c3.52-1.165.663-11.684-3.835-16.579z" fill="#FFF"/>
            <path d="M1.23 15.909c2.646 2.782 8.944 7.684 20.406 7.632C34.8 23.48 37.332 8.794 34.324 0L1.23 15.909z" fill="url(#uoksrkouyb)" opacity=".54"/>
            <path d="m38.22 40.508-.002-.004c-.054 0-.11-.006-.166-.01.058.004.11.012.168.014zM43.694 30.482s-.02.544-.114 1.375l-.002.027s4.959 6.371 8.527 4.855c-3.608 1.194-8.41-6.257-8.41-6.257z" fill="#000"/>
            <path d="M38.052 40.496c-.12-.006-.236-.018-.354-.028.122.016.238.022.354.028z" fill="#FFF"/>
            <ellipse fill="#000" transform="rotate(-4.445 39.97 31.757)" cx="39.97" cy="31.757" rx="1.374" ry="2.778"/>
            <ellipse fill="#000" transform="rotate(-31.097 46.659 28.806)" cx="46.659" cy="28.806" rx="1.072" ry="2.16"/>
            <ellipse fill="#FFF" transform="rotate(-4.445 40.366 31.178)" cx="40.366" cy="31.178" rx="1" ry="1.009"/>
            <circle fill="#FFF" transform="rotate(-31.097 46.152 28.284)" cx="46.152" cy="28.284" r="1"/>
            <path d="M28.782 27.235c.296 3.85 1.758 12.599 8.916 13.23a5.113 5.113 0 0 1-.488-.088c-4.398-1.055-5.956-8.192-6.464-11.912-.614-.336-.966-.574-.966-.574a9.123 9.123 0 0 1-.998-.656z" fill="#000"/>
            <path d="M47.756 15.615c.187 7.583-1.912 10.935-4.624 12.157-.176.131-2.056 1.406-6.388.045a20.174 20.174 0 0 1-4.58-2.036l-.088-.052c-.424-.237-.86-.495-1.312-.773l-.094-.056.002-.002c-.188-.117-.374-.23-.566-.355 0 0-1.762-1.204-2.594.143 0 0-.706 1.05 1.268 2.549.278.211.606.43.998.656 0 0 .352.238.966.574h.002c2.052 1.121 7.07 3.334 12.032 1.49 0 0 5.559-1.522 5.49-9.797-.007-1.332-.16-2.836-.512-4.543z" fill="#000"/>
        </g>
        <path d="M69.35 7.01c2.511.013 8.37.434 14.555 3.62 3.604 1.755 7.412 4.352 10.948 8.206 0 0 .143.158.408.427l.194.194c3.143 3.112 17.714 15.902 22.91-8.72a33.266 33.266 0 0 1-.482 5.218l.394.684c3.706 6.445 4.982 17.39 2.576 22.104-.884 1.729-2.07 2.198-2.918 2.285l-.018.002-.052.002c-5.482.622-9.77-8.37-9.77-8.37-1.52 3.945-4.404 9.326-8.836 9.326-.424 0-.856-.05-1.286-.151-.058-.014-.118-.032-.178-.05l-.068-.02c-.138-.039-.27-.083-.404-.125l-.116-.039a8.504 8.504 0 0 1-.51-.211c-8.71-3.394-7.968-15.74-7.228-20.86l-.038-.035c-.022-.02-.046-.043-.078-.069-.28-.245-1.106-.91-2.592-1.592a17.519 17.519 0 0 0-2.68-.96l-4.594 21.817h-9.578l4.646-22.536c-2.6.213-5.58.725-8.98 1.679l1.71-8.1.78-3.692s.36-.03 1.01-.034zm48.333 9.98c-.074.346-.154.682-.24 1.008-.17.653-.36 1.265-.566 1.838-.206.574-.43 1.11-.666 1.609-.356.75-.74 1.42-1.144 2.017-.27.399-.548.765-.83 1.103-.282.337-.57.645-.86.927-.068.066-.138.124-.206.189.454.42.88 1.099 1.154 1.93.514 1.559.308 3.028-.462 3.286a.76.76 0 0 1-.242.038l-.032-.006c-.038 0-.078-.012-.116-.018a1.06 1.06 0 0 1-.184-.044c-.042-.016-.084-.038-.126-.059-.06-.028-.12-.06-.18-.1a2.056 2.056 0 0 1-.308-.248 3.462 3.462 0 0 1-.298-.328c-.04-.05-.08-.099-.118-.153-.058-.079-.112-.165-.166-.252-.034-.056-.07-.108-.104-.169-.056-.1-.11-.21-.162-.318-.026-.054-.054-.107-.08-.163a5.453 5.453 0 0 1-.476-1.969 10.926 10.926 0 0 1-1.25.636c-.252.107-.494.2-.72.276-.228.077-.44.139-.634.191-.778.206-1.272.228-1.272.228-.376.05-.748.08-1.118.1l-.356.01c-.162.005-.324.015-.484.015-.144 0-.29-.002-.434-.006a7.09 7.09 0 0 1-.046 1.709c-.034.24-.08.471-.134.694-.002.013-.004.027-.008.039a6.719 6.719 0 0 1-.182.616c-.008.02-.014.04-.02.058-.068.19-.142.369-.222.538l-.03.064a4.257 4.257 0 0 1-.292.515 3.254 3.254 0 0 1-.326.421c-.098.105-.2.198-.302.276l-.048.034c-.104.073-.21.131-.316.173-.016.006-.032.01-.048.017a1.095 1.095 0 0 1-.326.06l-.018.004a1.06 1.06 0 0 1-.138-.01c-1.03-.151-1.62-1.963-1.32-4.049a7.171 7.171 0 0 1 .42-1.604c-.196-.047-.396-.085-.588-.137-.78-.212-1.53-.467-2.244-.757a22.369 22.369 0 0 1-2.034-.946 24.852 24.852 0 0 1-2.596-1.577 27.605 27.605 0 0 1-1.958-1.492 31.276 31.276 0 0 1-.494-.424l-.01.098c-.428 5.164-.446 15.085 5.092 17.817l.21.099c.14.062.279.116.416.167.154.05.306.1.466.145.074.02.148.046.22.063.386.092.764.134 1.13.134 4.594 0 7.494-6.758 8.644-10.084.376-1.083.566-1.806.566-1.806s1.382 3.66 3.5 6.821c1.528 2.223 3.45 4.13 5.55 4.13.112 0 .222-.007.334-.017 5.066-.491 4.394-15.443-.168-23.357zM103.38 28.433c-.12.217-.214.493-.258.803-.108.757.106 1.415.482 1.468.256.036.518-.222.694-.628.08-.19.146-.405.18-.645.048-.338.03-.652-.036-.906-.042-.002-.082-.008-.122-.01a14.186 14.186 0 0 1-.832-.066zm9.05-2.12c-.118.093-.236.181-.352.266-.048.034-.096.064-.144.096l-.102.073a1.835 1.835 0 0 0 .188.861c.196.417.496.677.726.6.27-.09.342-.608.162-1.155-.112-.336-.292-.604-.478-.741zm16.944-9.142c1.12.01 8.32.282 10.614 5.615l2.752 6.398h.11l2.542-12.013h.41c1.586.038 7.199.55 6.047 6.007l-3.485 16.515h-7.976l-5.456-12.35h-.166l-2.602 12.35h-7.698l4.756-22.522zm26.03.018c3.28.117 20.203.95 20.269 5.726h-13.476l-.61 2.814h12.654l-1.19 5.657h-12.654l-1.744 8.307h-8.002zm23.775-.016-1.218 5.77h7.088l-3.544 16.752h7.836l3.544-16.752H200c.002-5.315-20.822-5.77-20.822-5.77z" fill="#FFF"/>
    </g>
</svg>
