<?xml version="1.0" encoding="utf-8"?>
<!-- Generator: Adobe Illustrator 19.2.1, SVG Export Plug-In . SVG Version: 6.00 Build 0)  -->
<svg version="1.1" id="layer" xmlns="http://www.w3.org/2000/svg" xmlns:xlink="http://www.w3.org/1999/xlink" x="0px" y="0px"
	 height="49px" width="200px" viewBox="0 0 652 652" style="enable-background:new 0 0 652 652;" xml:space="preserve">
<style type="text/css">
	.st0{fill:#F98012;}
	.st1{fill:#333333;}
</style>
<g>
	<path class="st0" d="M167.6,398.8V346c0-11-4.6-16.6-13.6-16.6c-9.1,0-13.7,5.5-13.7,16.6v52.8h-26.9V346c0-11-4.5-16.6-13.5-16.6
		c-9.1,0-13.6,5.5-13.6,16.6v52.8H59.5v-55.9c0-11.5,4-20.2,12-26.1c7-5.3,16.6-7.9,28.6-7.9c12.1,0,21.1,3.1,26.9,9.4
		c5-6.2,14-9.4,27.1-9.4c12,0,21.5,2.6,28.5,7.9c8,5.9,12,14.6,12,26.1v55.9H167.6z"/>
	<path class="st0" d="M496.9,398.5V247.8h26.9v150.8H496.9z"/>
	<path class="st0" d="M462.6,398.5v-8.9c-2.4,3.2-6.5,5.8-12.2,7.7c-5.1,1.8-10,2.6-14.6,2.6c-12.8,0-23.1-4.4-30.9-13.2
		c-7.8-8.8-11.7-19.7-11.7-32.7c0-12.8,3.8-23.5,11.4-32.2c6.7-7.7,17.7-13,30.4-13c14.2,0,22.6,5.4,27.6,11.5v-72.7h26.2v150.8
		H462.6z M462.6,348.3c0-4.8-2.3-9.4-6.8-13.8c-4.5-4.4-9.3-6.6-14-6.6c-6.9,0-12.3,2.8-16.3,8.4c-3.5,5-5.3,11.1-5.3,18.2
		c0,7.1,1.8,13.1,5.3,18c4,5.8,9.5,8.6,16.3,8.6c4.1,0,8.7-1.9,13.6-5.9c4.9-3.9,7.3-7.9,7.3-12.1V348.3z"/>
	<path class="st0" d="M342.6,400.9c-13.6,0-24.9-4.3-33.7-13c-8.9-8.6-13.3-19.7-13.3-33.4c0-13.6,4.4-24.7,13.3-33.3
		c8.9-8.6,20.1-13,33.7-13c13.6,0,24.9,4.3,33.8,13c9,8.6,13.5,19.8,13.5,33.3c0,13.6-4.5,24.7-13.5,33.4
		C367.5,396.6,356.2,400.9,342.6,400.9z M342.6,329.9c-6.5,0-11.5,2.4-15,7.4c-3.5,4.9-5.2,10.7-5.2,17.5c0,6.8,1.6,12.5,4.9,17.1
		c3.7,5.3,8.8,7.9,15.3,7.9c6.5,0,11.6-2.6,15.3-7.9c3.4-4.7,5.1-10.4,5.1-17.1c0-6.8-1.6-12.5-4.9-17.1
		C354.4,332.4,349.2,329.9,342.6,329.9z"/>
	<path class="st0" d="M245.4,400.9c-13.6,0-24.9-4.3-33.7-13c-8.9-8.6-13.3-19.7-13.3-33.4c0-13.6,4.4-24.7,13.3-33.3
		c8.9-8.6,20.1-13,33.7-13c13.6,0,24.9,4.3,33.8,13s13.5,19.8,13.5,33.3c0,13.6-4.5,24.7-13.5,33.4
		C270.3,396.6,259,400.9,245.4,400.9z M245.4,329.9c-6.5,0-11.5,2.4-15,7.4c-3.5,4.9-5.2,10.7-5.2,17.5c0,6.8,1.6,12.5,4.9,17.1
		c3.7,5.3,8.8,7.9,15.3,7.9c6.5,0,11.6-2.6,15.3-7.9c3.4-4.7,5.1-10.4,5.1-17.1c0-6.8-1.6-12.5-4.9-17.1
		C257.2,332.4,252,329.9,245.4,329.9z"/>
	<path class="st0" d="M555.6,362.8c0.6,6.4,8.9,20.2,22.6,20.2c13.3,0,19.6-7.7,19.9-10.8l28.3-0.2c-3.1,9.5-15.6,29.5-48.7,29.5
		c-13.7,0-26.4-4.3-35.4-12.8c-9-8.6-13.6-19.7-13.6-33.5c0-14.2,4.5-25.5,13.6-34c9.1-8.4,20.8-12.6,35.2-12.6
		c15.7,0,27.9,5.2,36.7,15.6c8.1,9.6,12.2,22.5,12.2,38.7H555.6L555.6,362.8z M599.5,346.2c-1.1-5.8-3.5-10.5-7.2-14.2
		c-4.2-4-9-6-14.4-6c-5.6,0-10.3,1.9-14,5.8c-3.8,3.9-6.3,8.6-7.6,14.4H599.5z"/>
	<path class="st1" d="M111.6,304.8l26.7-19.5l-0.3-1.2c-48.1,5.9-70,10.1-111.5,34.1l0.4,1.1l3.3,0c-0.3,3.3-0.8,11.5-0.1,23.9
		c-4.6,13.3-0.1,22.4,4.1,32.2c0.7-10.2,0.6-21.4-2.5-32.6c-0.6-12.2-0.1-20.3,0.2-23.4l27.5,0.2c0,0-0.2,8.3,0.8,16.1
		c24.6,8.6,49.3,0,62.4-21.3C118.8,310.3,111.6,304.8,111.6,304.8z"/>
</g>
</svg>
