<svg width="24" height="24" viewBox="0 0 22 15" fill="none" xmlns="http://www.w3.org/2000/svg">
<g>
<path d="M12.4688 7L15.8438 3.65625C16.0312 3.46875 16.0312 3.125 15.8438 2.9375L15.0625 2.15625C14.875 1.96875 14.5312 1.96875 14.3438 2.15625L11 5.53125L7.625 2.15625C7.4375 1.96875 7.09375 1.96875 6.90625 2.15625L6.125 2.9375C5.9375 3.125 5.9375 3.46875 6.125 3.65625L9.5 7L6.125 10.375C5.9375 10.5625 5.9375 10.9062 6.125 11.0938L6.90625 11.875C7.09375 12.0625 7.4375 12.0625 7.625 11.875L11 8.5L14.3438 11.875C14.5312 12.0625 14.875 12.0625 15.0625 11.875L15.8438 11.0938C16.0312 10.9062 16.0312 10.5625 15.8438 10.375L12.4688 7Z" fill="#C1C7CD"/>
</g>
<defs>
<filter id="filter0_d_2672_6691" x="0.9375" y="0.96875" width="20.0938" height="20.0938" filterUnits="userSpaceOnUse" color-interpolation-filters="sRGB">
<feFlood flood-opacity="0" result="BackgroundImageFix"/>
<feColorMatrix in="SourceAlpha" type="matrix" values="0 0 0 0 0 0 0 0 0 0 0 0 0 0 0 0 0 0 127 0" result="hardAlpha"/>
<feOffset dy="4"/>
<feGaussianBlur stdDeviation="2.5"/>
<feComposite in2="hardAlpha" operator="out"/>
<feColorMatrix type="matrix" values="0 0 0 0 0 0 0 0 0 0 0 0 0 0 0 0 0 0 0.08 0"/>
<feBlend mode="normal" in2="BackgroundImageFix" result="effect1_dropShadow_2672_6691"/>
<feBlend mode="normal" in="SourceGraphic" in2="effect1_dropShadow_2672_6691" result="shape"/>
</filter>
</defs>
</svg>
