<svg width="20" height="20" viewBox="0 0 20 20" fill="none" xmlns="http://www.w3.org/2000/svg">
<path d="M10 20C15.5228 20 20 15.5228 20 10C20 4.47715 15.5228 0 10 0C4.47715 0 0 4.47715 0 10C0 15.5228 4.47715 20 10 20Z" fill="#FFE14D"/>
<path d="M20 10C20 4.48598 15.514 0 10 0V20C15.514 20 20 15.514 20 10Z" fill="#FFBB33"/>
<path d="M10 17.6172C5.8 17.6172 2.38281 14.2 2.38281 10C2.38281 5.8 5.8 2.38281 10 2.38281C14.2 2.38281 17.6172 5.8 17.6172 10C17.6172 14.2 14.2 17.6172 10 17.6172Z" fill="#FFBB33"/>
<path d="M17.6172 10C17.6172 5.8 14.2 2.38281 10 2.38281V17.6172C14.2 17.6172 17.6172 14.2 17.6172 10Z" fill="#E68A2E"/>
<path d="M10.5859 9.45575V7.13911C11.2598 7.30446 11.7578 7.73805 11.7578 8.23645C11.7578 8.56032 12.0199 8.82239 12.3438 8.82239C12.6676 8.82239 12.9297 8.56032 12.9297 8.23645C12.9297 7.10434 11.9218 6.15778 10.5859 5.94012V5.30676C10.5859 4.9829 10.3239 4.72083 10 4.72083C9.67613 4.72083 9.41406 4.9829 9.41406 5.30676V5.94012C8.07816 6.15778 7.07031 7.10434 7.07031 8.23645C7.07031 9.36856 8.07816 10.3151 9.41406 10.5328V12.8494C8.74016 12.6841 8.24219 12.2505 8.24219 11.7521C8.24219 11.4282 7.98012 11.1661 7.65625 11.1661C7.33238 11.1661 7.07031 11.4282 7.07031 11.7521C7.07031 12.8842 8.07816 13.8307 9.41406 14.0484V14.6875C9.41406 15.0113 9.67613 15.2734 10 15.2734C10.3239 15.2734 10.5859 15.0113 10.5859 14.6875V14.0484C11.9218 13.8307 12.9297 12.8842 12.9297 11.7521C12.9297 10.62 11.9218 9.67336 10.5859 9.45575V9.45575ZM8.24219 8.23645C8.24219 7.73805 8.74016 7.30446 9.41406 7.13911V9.33379C8.74016 9.1684 8.24219 8.73481 8.24219 8.23645V8.23645ZM10.5859 12.8494V10.6547C11.2598 10.8201 11.7578 11.2537 11.7578 11.7521C11.7578 12.2505 11.2598 12.684 10.5859 12.8494Z" fill="#FFE14D"/>
<path d="M10.5859 14.6875V14.0484C11.9218 13.8307 12.9297 12.8842 12.9297 11.7521C12.9297 10.62 11.9218 9.6734 10.5859 9.45575V7.13911C11.2598 7.30446 11.7578 7.73805 11.7578 8.23645C11.7578 8.56032 12.0199 8.82239 12.3438 8.82239C12.6676 8.82239 12.9297 8.56032 12.9297 8.23645C12.9297 7.10434 11.9218 6.15778 10.5859 5.94012V5.30676C10.5859 4.9829 10.3239 4.72083 10 4.72083V15.2734C10.3239 15.2734 10.5859 15.0113 10.5859 14.6875ZM10.5859 10.6547C11.2598 10.82 11.7578 11.2536 11.7578 11.752C11.7578 12.2504 11.2598 12.684 10.5859 12.8494V10.6547Z" fill="#FFBB33"/>
</svg>
