<svg width="14" height="15" viewBox="0 0 14 15" fill="none" xmlns="http://www.w3.org/2000/svg">
  <path d="M12.7148 2.55469L11.3203 1.16016C11.0742 0.914062 10.7461 0.75 10.3906 0.75H5.6875C4.94922 0.75 4.375 1.35156 4.375 2.0625V3.375H2.1875C1.44922 3.375 0.875 3.97656 0.875 4.6875V13.4375C0.875 14.1758 1.44922 14.75 2.1875 14.75H8.3125C9.02344 14.75 9.625 14.1758 9.625 13.4375V12.125H11.8125C12.5234 12.125 13.125 11.5508 13.125 10.8125V3.48438C13.125 3.12891 12.9609 2.80078 12.7148 2.55469ZM8.14844 13.4375H2.35156C2.24219 13.4375 2.1875 13.3828 2.1875 13.2734V4.85156C2.1875 4.76953 2.24219 4.6875 2.35156 4.6875H4.375V10.8125C4.375 11.5508 4.94922 12.125 5.6875 12.125H8.3125V13.2734C8.3125 13.3828 8.23047 13.4375 8.14844 13.4375ZM11.6484 10.8125H5.85156C5.74219 10.8125 5.6875 10.7578 5.6875 10.6484V2.22656C5.6875 2.14453 5.74219 2.0625 5.85156 2.0625H8.75V4.46875C8.75 4.85156 9.02344 5.125 9.40625 5.125H11.8125V10.6484C11.8125 10.7578 11.7305 10.8125 11.6484 10.8125ZM11.8125 3.8125H10.0625V2.0625H10.3086C10.3633 2.0625 10.3906 2.08984 10.418 2.11719L11.7578 3.45703C11.7852 3.48438 11.8125 3.51172 11.8125 3.56641V3.8125Z" fill="#121619"/>
  </svg>
  