<svg width="14" height="16" viewBox="0 0 14 16" fill="none" xmlns="http://www.w3.org/2000/svg">
<path d="M8.71875 16H2.75C1.37146 16 0.25 14.8785 0.25 13.5V5.03125C0.25 3.65271 1.37146 2.53125 2.75 2.53125H8.71875C10.0973 2.53125 11.2188 3.65271 11.2188 5.03125V13.5C11.2188 14.8785 10.0973 16 8.71875 16ZM2.75 3.78125C2.06079 3.78125 1.5 4.34204 1.5 5.03125V13.5C1.5 14.1892 2.06079 14.75 2.75 14.75H8.71875C9.40796 14.75 9.96875 14.1892 9.96875 13.5V5.03125C9.96875 4.34204 9.40796 3.78125 8.71875 3.78125H2.75ZM13.7188 11.9375V2.5C13.7188 1.12146 12.5973 0 11.2188 0H4.28125C3.93604 0 3.65625 0.279785 3.65625 0.625C3.65625 0.970215 3.93604 1.25 4.28125 1.25H11.2188C11.908 1.25 12.4688 1.81079 12.4688 2.5V11.9375C12.4688 12.2827 12.7485 12.5625 13.0938 12.5625C13.439 12.5625 13.7188 12.2827 13.7188 11.9375Z" fill="#0F62FE"/>
</svg>
