<svg width="242" height="176" viewBox="0 0 242 176" fill="none" xmlns="http://www.w3.org/2000/svg">
<path opacity="0.1" d="M202.41 82.0789C202.41 100.434 196.265 117.681 186.022 131.289C180.349 138.726 173.572 145.213 165.693 150.276C153.086 158.663 137.801 163.41 121.57 163.41C76.9734 163.568 40.729 127.175 40.729 82.0789C40.729 37.1414 76.8158 0.590088 121.57 0.590088C137.801 0.590088 152.929 5.33701 165.693 13.7232C173.572 18.7866 180.349 25.2741 186.022 32.7109C196.265 46.477 202.41 63.5659 202.41 82.0789Z" fill="#EAEEF9"/>
<path d="M60.0035 71.1845H59.0275C58.2956 71.1845 57.8076 70.9568 57.8076 70.6152C57.8076 70.2736 58.2956 70.0459 59.0275 70.0459H60.0035C60.7354 70.0459 61.2234 70.2736 61.2234 70.6152C61.2234 70.9568 60.7354 71.1845 60.0035 71.1845Z" fill="#2D5887"/>
<path d="M60.0035 75.7375H59.0275C58.2956 75.7375 57.8076 75.5098 57.8076 75.1682C57.8076 74.8266 58.2956 74.5989 59.0275 74.5989H60.0035C60.7354 74.5989 61.2234 74.8266 61.2234 75.1682C61.2234 75.5098 60.7354 75.7375 60.0035 75.7375Z" fill="#2D5887"/>
<path d="M60.0035 80.2934H59.0275C58.2956 80.2934 57.8076 80.0657 57.8076 79.7241C57.8076 79.3825 58.2956 79.1548 59.0275 79.1548H60.0035C60.7354 79.1548 61.2234 79.3825 61.2234 79.7241C61.2234 80.0657 60.7354 80.2934 60.0035 80.2934Z" fill="#2D5887"/>
<path d="M60.0035 84.8464H59.0275C58.2956 84.8464 57.8076 84.6186 57.8076 84.2771C57.8076 83.9355 58.2956 83.7078 59.0275 83.7078H60.0035C60.7354 83.7078 61.2234 83.9355 61.2234 84.2771C61.2234 84.6186 60.7354 84.8464 60.0035 84.8464Z" fill="#2D5887"/>
<path d="M104.545 71.1845H88.496C87.8454 71.1845 87.4116 70.9568 87.4116 70.6152C87.4116 70.2736 87.8454 70.0459 88.496 70.0459H104.545C105.195 70.0459 105.629 70.2736 105.629 70.6152C105.629 70.9568 105.195 71.1845 104.545 71.1845Z" fill="white"/>
<path d="M138.74 84.8464H88.4591C87.8306 84.8464 87.4116 84.6186 87.4116 84.2771C87.4116 83.9355 87.8306 83.7078 88.4591 83.7078H138.74C139.368 83.7078 139.787 83.9355 139.787 84.2771C139.787 84.6186 139.368 84.8464 138.74 84.8464Z" fill="url(#paint0_linear_211_3888)"/>
<path d="M104.607 75.7375H82.7401C82.127 75.7375 81.7183 75.5098 81.7183 75.1682C81.7183 74.8266 82.127 74.5989 82.7401 74.5989H104.607C105.22 74.5989 105.629 74.8266 105.629 75.1682C105.629 75.5098 105.22 75.7375 104.607 75.7375Z" fill="#2D5887"/>
<path d="M121.688 80.2934H82.7379C82.1261 80.2934 81.7183 80.0657 81.7183 79.7241C81.7183 79.3825 82.1261 79.1548 82.7379 79.1548H121.688C122.3 79.1548 122.708 79.3825 122.708 79.7241C122.504 80.0657 122.096 80.2934 121.688 80.2934Z" fill="#2D5887"/>
<path d="M138.678 80.2934H123.817C123.152 80.2934 122.708 80.0657 122.708 79.7241C122.708 79.3825 123.152 79.1548 123.817 79.1548H138.678C139.343 79.1548 139.787 79.3825 139.787 79.7241C139.787 80.0657 139.343 80.2934 138.678 80.2934Z" fill="white"/>
<path d="M147.819 80.2934H142.003C141.357 80.2934 140.926 80.0657 140.926 79.7241C140.926 79.3825 141.357 79.1548 142.003 79.1548H147.819C148.465 79.1548 148.896 79.3825 148.896 79.7241C148.896 80.0657 148.465 80.2934 147.819 80.2934Z" fill="url(#paint1_linear_211_3888)"/>
<path opacity="0.2" d="M22.5112 142.914H213.796" stroke="#D6DEE8" stroke-width="2" stroke-miterlimit="10" strokeLinecap="round" stroke-linejoin="round"/>
<g filter="url(#filter0_d_211_3888)">
<path d="M156.866 70.0459V142.916H53.5539C49.4785 142.916 46.4219 139.641 46.4219 135.752V70.0459H156.866Z" fill="white"/>
</g>
<path d="M197.856 70.0459V135.752C197.856 139.846 194.458 142.916 190.422 142.916H156.866V70.0459H197.856Z" fill="#DAE1ED"/>
<g filter="url(#filter1_d_211_3888)">
<path d="M197.856 70.0459V135.752C197.856 139.846 194.458 142.916 190.422 142.916H156.866V70.0459H197.856Z" fill="#E7EAF4"/>
</g>
<path d="M86.2729 70.0452L107.997 35.8872H219.489L197.15 70.0452H86.2729Z" fill="#C5CDDB"/>
<g filter="url(#filter2_d_211_3888)">
<path d="M86.2729 70.0452L107.997 35.8872H219.489L197.15 70.0452H86.2729Z" fill="url(#paint2_linear_211_3888)"/>
</g>
<path opacity="0.3" d="M197.856 70.2454V108.758H167.968C165.192 108.758 163.271 106.962 162.844 104.368L156.866 70.0459L197.856 70.2454Z" fill="url(#paint3_linear_211_3888)"/>
<g filter="url(#filter3_d_211_3888)">
<path d="M196.997 70.0459H156.866L177.243 100.931C178.699 102.977 180.986 104.204 183.274 104.204H214.463C216.543 104.204 217.998 101.749 216.75 100.113L196.997 70.0459Z" fill="url(#paint4_linear_211_3888)"/>
</g>
<g filter="url(#filter4_d_211_3888)">
<path d="M156.866 70.0452L134.99 35.8872H22.5112L45.2133 70.0452H156.866Z" fill="#E7EAF4"/>
</g>
<path d="M101.541 112.174H58.4804C57.4743 112.174 56.6694 111.415 56.6694 110.466C56.6694 109.517 57.4743 108.758 58.4804 108.758H101.541C102.547 108.758 103.352 109.517 103.352 110.466C103.151 111.415 102.547 112.174 101.541 112.174Z" fill="#DAE1ED"/>
<path d="M101.541 120.144H58.4804C57.4743 120.144 56.6694 119.638 56.6694 119.005C56.6694 118.373 57.4743 117.867 58.4804 117.867H101.541C102.547 117.867 103.352 118.373 103.352 119.005C103.151 119.638 102.547 120.144 101.541 120.144Z" fill="#DAE1ED"/>
<path d="M78.7408 129.253H58.5087C57.4869 129.253 56.6694 128.746 56.6694 128.114C56.6694 127.481 57.4869 126.975 58.5087 126.975H78.7408C79.7626 126.975 80.5801 127.481 80.5801 128.114C80.3757 128.746 79.5582 129.253 78.7408 129.253Z" fill="#DAE1ED"/>
<defs>
<filter id="filter0_d_211_3888" x="24.4219" y="59.0459" width="154.444" height="116.87" filterUnits="userSpaceOnUse" color-interpolation-filters="sRGB">
<feFlood flood-opacity="0" result="BackgroundImageFix"/>
<feColorMatrix in="SourceAlpha" type="matrix" values="0 0 0 0 0 0 0 0 0 0 0 0 0 0 0 0 0 0 127 0" result="hardAlpha"/>
<feOffset dy="11"/>
<feGaussianBlur stdDeviation="11"/>
<feColorMatrix type="matrix" values="0 0 0 0 0.397708 0 0 0 0 0.47749 0 0 0 0 0.575 0 0 0 0.27 0"/>
<feBlend mode="normal" in2="BackgroundImageFix" result="effect1_dropShadow_211_3888"/>
<feBlend mode="normal" in="SourceGraphic" in2="effect1_dropShadow_211_3888" result="shape"/>
</filter>
<filter id="filter1_d_211_3888" x="134.866" y="59.0459" width="84.9897" height="116.87" filterUnits="userSpaceOnUse" color-interpolation-filters="sRGB">
<feFlood flood-opacity="0" result="BackgroundImageFix"/>
<feColorMatrix in="SourceAlpha" type="matrix" values="0 0 0 0 0 0 0 0 0 0 0 0 0 0 0 0 0 0 127 0" result="hardAlpha"/>
<feOffset dy="11"/>
<feGaussianBlur stdDeviation="11"/>
<feColorMatrix type="matrix" values="0 0 0 0 0.397708 0 0 0 0 0.47749 0 0 0 0 0.575 0 0 0 0.27 0"/>
<feBlend mode="normal" in2="BackgroundImageFix" result="effect1_dropShadow_211_3888"/>
<feBlend mode="normal" in="SourceGraphic" in2="effect1_dropShadow_211_3888" result="shape"/>
</filter>
<filter id="filter2_d_211_3888" x="64.2729" y="24.8872" width="177.216" height="78.158" filterUnits="userSpaceOnUse" color-interpolation-filters="sRGB">
<feFlood flood-opacity="0" result="BackgroundImageFix"/>
<feColorMatrix in="SourceAlpha" type="matrix" values="0 0 0 0 0 0 0 0 0 0 0 0 0 0 0 0 0 0 127 0" result="hardAlpha"/>
<feOffset dy="11"/>
<feGaussianBlur stdDeviation="11"/>
<feColorMatrix type="matrix" values="0 0 0 0 0.397708 0 0 0 0 0.47749 0 0 0 0 0.575 0 0 0 0.27 0"/>
<feBlend mode="normal" in2="BackgroundImageFix" result="effect1_dropShadow_211_3888"/>
<feBlend mode="normal" in="SourceGraphic" in2="effect1_dropShadow_211_3888" result="shape"/>
</filter>
<filter id="filter3_d_211_3888" x="134.866" y="59.0459" width="104.346" height="78.158" filterUnits="userSpaceOnUse" color-interpolation-filters="sRGB">
<feFlood flood-opacity="0" result="BackgroundImageFix"/>
<feColorMatrix in="SourceAlpha" type="matrix" values="0 0 0 0 0 0 0 0 0 0 0 0 0 0 0 0 0 0 127 0" result="hardAlpha"/>
<feOffset dy="11"/>
<feGaussianBlur stdDeviation="11"/>
<feColorMatrix type="matrix" values="0 0 0 0 0.397708 0 0 0 0 0.47749 0 0 0 0 0.575 0 0 0 0.27 0"/>
<feBlend mode="normal" in2="BackgroundImageFix" result="effect1_dropShadow_211_3888"/>
<feBlend mode="normal" in="SourceGraphic" in2="effect1_dropShadow_211_3888" result="shape"/>
</filter>
<filter id="filter4_d_211_3888" x="0.51123" y="24.8872" width="178.355" height="78.158" filterUnits="userSpaceOnUse" color-interpolation-filters="sRGB">
<feFlood flood-opacity="0" result="BackgroundImageFix"/>
<feColorMatrix in="SourceAlpha" type="matrix" values="0 0 0 0 0 0 0 0 0 0 0 0 0 0 0 0 0 0 127 0" result="hardAlpha"/>
<feOffset dy="11"/>
<feGaussianBlur stdDeviation="11"/>
<feColorMatrix type="matrix" values="0 0 0 0 0.397708 0 0 0 0 0.47749 0 0 0 0 0.575 0 0 0 0.27 0"/>
<feBlend mode="normal" in2="BackgroundImageFix" result="effect1_dropShadow_211_3888"/>
<feBlend mode="normal" in="SourceGraphic" in2="effect1_dropShadow_211_3888" result="shape"/>
</filter>
<linearGradient id="paint0_linear_211_3888" x1="87.6469" y1="84.3002" x2="139.848" y2="84.3002" gradientUnits="userSpaceOnUse">
<stop stop-color="#FF66A9"/>
<stop offset="1" stop-color="#F53689"/>
</linearGradient>
<linearGradient id="paint1_linear_211_3888" x1="140.979" y1="79.6892" x2="148.894" y2="79.6892" gradientUnits="userSpaceOnUse">
<stop stop-color="#83A6FF"/>
<stop offset="1" stop-color="#5A78FF"/>
</linearGradient>
<linearGradient id="paint2_linear_211_3888" x1="152.838" y1="35.0971" x2="152.838" y2="70.4135" gradientUnits="userSpaceOnUse">
<stop stop-color="#FDFEFF"/>
<stop offset="0.9964" stop-color="#ECF0F5"/>
</linearGradient>
<linearGradient id="paint3_linear_211_3888" x1="177.37" y1="109.553" x2="177.37" y2="74.2905" gradientUnits="userSpaceOnUse">
<stop offset="0.00289017" stop-color="#606673" stop-opacity="0"/>
<stop offset="1" stop-color="#AAB2C5"/>
</linearGradient>
<linearGradient id="paint4_linear_211_3888" x1="187.019" y1="69.2558" x2="187.019" y2="104.572" gradientUnits="userSpaceOnUse">
<stop stop-color="#FDFEFF"/>
<stop offset="0.9964" stop-color="#ECF0F5"/>
</linearGradient>
</defs>
</svg>
