<svg width="12" height="12" viewBox="0 0 12 12" fill="none" xmlns="http://www.w3.org/2000/svg">
<path fill-rule="evenodd" clip-rule="evenodd" d="M5.22862 0.212604C5.4641 0.0732231 5.72977 0 6 0C6.27023 0 6.5359 0.0732231 6.77138 0.212604C7.00686 0.351985 7.20419 0.552819 7.34434 0.795728L7.34585 0.798345L11.785 8.58968L11.7893 8.59729C11.9266 8.84725 11.9992 9.13065 12 9.41928C12.0008 9.70792 11.9296 9.99174 11.7937 10.2425C11.6577 10.4933 11.4617 10.7022 11.2251 10.8486C10.9884 10.995 10.7195 11.0737 10.445 11.0769L10.4392 11.0769L1.55504 11.0769C1.28051 11.0737 1.01156 10.995 0.774941 10.8486C0.53832 10.7022 0.34228 10.4933 0.206325 10.2425C0.0703692 9.99174 -0.00076254 9.70792 6.16489e-06 9.41928C0.000774901 9.13065 0.0734175 8.84725 0.210706 8.59729L0.214964 8.58968L4.65416 0.798349L5.10377 1.08149L4.65566 0.795728C4.79581 0.552819 4.99315 0.351985 5.22862 0.212604ZM5.55252 1.36617L1.11672 9.15155C1.07208 9.23409 1.04847 9.32738 1.04822 9.42237C1.04796 9.51858 1.07167 9.61319 1.11699 9.69678C1.16231 9.78036 1.22766 9.85002 1.30653 9.89881C1.38471 9.94718 1.47348 9.97338 1.56416 9.97486H10.4358C10.5265 9.97338 10.6153 9.94718 10.6935 9.89881C10.7723 9.85002 10.8377 9.78036 10.883 9.69678C10.9283 9.61319 10.952 9.51858 10.9518 9.42237C10.9515 9.32739 10.9279 9.23411 10.8833 9.15158L6.44811 1.36727C6.4479 1.3669 6.44769 1.36654 6.44748 1.36617C6.4008 1.2857 6.33526 1.21915 6.25713 1.1729C6.17863 1.12644 6.09008 1.10203 6 1.10203C5.90992 1.10203 5.82137 1.12644 5.74287 1.1729C5.66474 1.21915 5.5992 1.2857 5.55252 1.36617Z" fill="white"/>
<path fill-rule="evenodd" clip-rule="evenodd" d="M6.00011 2.76929C6.25501 2.76929 6.46165 3.0448 6.46165 3.38467V5.84621C6.46165 6.18608 6.25501 6.4616 6.00011 6.4616C5.74521 6.4616 5.53857 6.18608 5.53857 5.84621V3.38467C5.53857 3.0448 5.74521 2.76929 6.00011 2.76929Z" fill="white"/>
<path fill-rule="evenodd" clip-rule="evenodd" d="M5.53857 7.84618C5.53857 7.59128 5.74418 7.38464 5.99782 7.38464H6.00241C6.25604 7.38464 6.46165 7.59128 6.46165 7.84618C6.46165 8.10108 6.25604 8.30772 6.00241 8.30772H5.99782C5.74418 8.30772 5.53857 8.10108 5.53857 7.84618Z" fill="white"/>
</svg>
