<svg width="14" height="15" viewBox="0 0 14 15" fill="none" xmlns="http://www.w3.org/2000/svg">
<path d="M7 1.34375C10.2266 1.34375 12.9062 3.99609 12.9062 7.25C12.9062 10.5312 10.2539 13.1562 7 13.1562C3.71875 13.1562 1.09375 10.5312 1.09375 7.25C1.09375 3.99609 3.71875 1.34375 7 1.34375ZM7 0.46875C3.25391 0.46875 0.21875 3.53125 0.21875 7.25C0.21875 10.9961 3.25391 14.0312 7 14.0312C10.7188 14.0312 13.7812 10.9961 13.7812 7.25C13.7812 3.53125 10.7188 0.46875 7 0.46875ZM6.01562 9.875C5.82422 9.875 5.6875 10.0391 5.6875 10.2031V10.4219C5.6875 10.6133 5.82422 10.75 6.01562 10.75H7.98438C8.14844 10.75 8.3125 10.6133 8.3125 10.4219V10.2031C8.3125 10.0391 8.14844 9.875 7.98438 9.875H7.65625V6.04688C7.65625 5.88281 7.49219 5.71875 7.32812 5.71875H6.01562C5.82422 5.71875 5.6875 5.88281 5.6875 6.04688V6.26562C5.6875 6.45703 5.82422 6.59375 6.01562 6.59375H6.34375V9.875H6.01562ZM7 3.3125C6.50781 3.3125 6.125 3.72266 6.125 4.1875C6.125 4.67969 6.50781 5.0625 7 5.0625C7.46484 5.0625 7.875 4.67969 7.875 4.1875C7.875 3.72266 7.46484 3.3125 7 3.3125Z" fill="#697077"/>
</svg>
