<svg width="36" height="36" viewBox="0 0 36 36" fill="none" xmlns="http://www.w3.org/2000/svg">
<path d="M34.221 0L20.1538 11.253L22.7664 4.614L34.221 0Z" fill="#E17726"/>
<path d="M1.7793 0L15.7185 11.3595L13.234 4.614L1.7793 0Z" fill="#E27625"/>
<path d="M29.1641 26.0865L25.4219 32.2695L33.4293 34.644L35.7177 26.223L29.1641 26.0865Z" fill="#E27625"/>
<path d="M0.296387 26.223L2.57091 34.644L10.5783 32.2695L6.85006 26.0865L0.296387 26.223Z" fill="#E27625"/>
<path d="M10.1401 15.639L7.90869 19.2795L15.8466 19.6605L15.5781 10.446L10.1401 15.639Z" fill="#E27625"/>
<path d="M25.8603 15.639L20.3374 10.3395L20.1538 19.6605L28.0917 19.2795L25.8603 15.639Z" fill="#E27625"/>
<path d="M10.5781 32.2695L15.3664 29.7555L11.2417 26.2845L10.5781 32.2695Z" fill="#E27625"/>
<path d="M20.6333 29.7555L25.4216 32.2695L24.758 26.2845L20.6333 29.7555Z" fill="#E27625"/>
<path d="M25.4216 32.2695L20.6333 29.7555L21.0145 33.1215L20.9727 34.5375L25.4216 32.2695Z" fill="#D5BFB2"/>
<path d="M10.5781 32.2695L15.027 34.5375L14.9992 33.1215L15.3664 29.7555L10.5781 32.2695Z" fill="#D5BFB2"/>
<path d="M15.1117 24.06L11.1289 22.797L13.939 21.411L15.1117 24.06Z" fill="#233447"/>
<path d="M20.8877 24.06L22.0604 21.411L24.8844 22.797L20.8877 24.06Z" fill="#233447"/>
<path d="M10.5784 32.2695L11.2698 26.0865L6.8501 26.223L10.5784 32.2695Z" fill="#CC6228"/>
<path d="M24.7305 26.0865L25.4219 32.2695L29.164 26.223L24.7305 26.0865Z" fill="#CC6228"/>
<path d="M28.0917 19.2795L20.1538 19.6605L20.8883 24.06L22.0611 21.411L24.8851 22.797L28.0917 19.2795Z" fill="#CC6228"/>
<path d="M11.1292 22.797L13.9393 21.411L15.112 24.06L15.8466 19.6605L7.90869 19.2795L11.1292 22.797Z" fill="#CC6228"/>
<path d="M7.90869 19.2795L11.2419 26.2845L11.1292 22.797L7.90869 19.2795Z" fill="#E27525"/>
<path d="M24.8849 22.797L24.7583 26.2845L28.0915 19.2795L24.8849 22.797Z" fill="#E27525"/>
<path d="M15.8468 19.6605L15.1123 24.06L16.0444 29.253L16.2419 22.416L15.8468 19.6605Z" fill="#E27525"/>
<path d="M20.1531 19.6605L19.772 22.401L19.9556 29.253L20.8877 24.06L20.1531 19.6605Z" fill="#E27525"/>
<path d="M20.8881 24.06L19.9561 29.253L20.6335 29.7555L24.7583 26.2845L24.8849 22.797L20.8881 24.06Z" fill="#F5841F"/>
<path d="M11.1289 22.797L11.2416 26.2845L15.3663 29.7555L16.0438 29.253L15.1118 24.06L11.1289 22.797Z" fill="#F5841F"/>
<path d="M20.9727 34.5375L21.0145 33.1215L20.6625 32.787H15.3372L14.9992 33.1215L15.027 34.5375L10.5781 32.2695L12.132 33.639L15.2955 36H20.7043L23.8677 33.639L25.4216 32.2695L20.9727 34.5375Z" fill="#C0AC9D"/>
<path d="M20.6331 29.7555L19.9557 29.253H16.0438L15.3663 29.7555L14.999 33.1215L15.3371 32.787H20.6624L21.0143 33.1215L20.6331 29.7555Z" fill="#161616"/>
<path d="M34.8132 11.985L35.9999 5.772L34.2206 0L20.6333 10.8735L25.8598 15.639L33.2454 17.97L34.8703 15.9135L34.1636 15.366L35.2932 14.253L34.432 13.5225L35.5617 12.594L34.8132 11.985Z" fill="#763E1A"/>
<path d="M0 5.772L1.20056 11.985L0.43821 12.594L1.56782 13.5225L0.706701 14.253L1.83631 15.366L1.12961 15.9135L2.75446 17.97L10.14 15.639L15.3666 10.8735L1.77927 0L0 5.772Z" fill="#763E1A"/>
<path d="M33.2457 17.97L25.8601 15.639L28.0915 19.2795L24.7583 26.2845L29.1641 26.223H35.7177L33.2457 17.97Z" fill="#F5841F"/>
<path d="M10.1401 15.639L2.75454 17.97L0.296387 26.223H6.85006L11.2419 26.2845L7.90872 19.2795L10.1401 15.639Z" fill="#F5841F"/>
<path d="M20.1534 19.6605L20.6334 10.8735L22.766 4.61401H13.2339L15.3665 10.8735L15.8465 19.6605L16.0301 22.431L16.044 29.253H19.9559L19.9698 22.431L20.1534 19.6605Z" fill="#F5841F"/>
</svg>
