<svg width="12" height="16" viewBox="0 0 12 16" fill="none" xmlns="http://www.w3.org/2000/svg">
  <path d="M8.12891 14.8906C8.26562 15.0273 8.45703 15.0273 8.59375 14.8906L11.2187 12.2656C11.4375 12.0469 11.2734 11.6914 11 11.6914L9.03125 11.6914L9.03125 1.32812C9.03125 1.13672 8.86719 1 8.70312 1L8.04688 1C7.85547 1 7.71875 1.13672 7.71875 1.32812L7.71875 11.6914L5.72266 11.6914C5.44922 11.6914 5.28516 12.0469 5.50391 12.2656L8.12891 14.8906ZM2.87891 1.08203L0.253906 3.70703C0.0351561 3.92578 0.199219 4.28125 0.472656 4.28125L2.46875 4.28125L2.46875 14.6719C2.46875 14.8359 2.60547 15 2.79687 15L3.45312 15C3.61719 15 3.78125 14.8359 3.78125 14.6719L3.78125 4.28125L5.75 4.28125C6.02344 4.28125 6.1875 3.92578 5.96875 3.70703L3.34375 1.08203C3.20703 0.945312 3.01563 0.945312 2.87891 1.08203Z" fill="#697077"/>
  </svg>
  